<svg width="21" height="21" viewBox="0 0 21 21" fill="none" xmlns="http://www.w3.org/2000/svg">
<g clip-path="url(#clip0_13_16)">
<path d="M20.5201 18.1986L15.6106 13.2891C16.727 11.6316 17.2779 9.56076 16.983 7.35412C16.4801 3.60078 13.4039 0.546344 9.6469 0.0706863C4.06099 -0.636136 -0.636124 4.06097 0.0707398 9.64689C0.546521 13.4056 3.60137 16.4842 7.35512 16.9846C9.56176 17.2794 11.633 16.7288 13.2901 15.6122L18.1996 20.5218C18.8403 21.1624 19.8792 21.1624 20.5199 20.5218C21.16 19.8803 21.16 18.8385 20.5201 18.1986ZM3.24437 8.53127C3.24437 5.63638 5.59948 3.28127 8.49437 3.28127C11.3892 3.28127 13.7444 5.63638 13.7444 8.53127C13.7444 11.4261 11.3892 13.7813 8.49437 13.7813C5.59948 13.7813 3.24437 11.427 3.24437 8.53127Z" fill="#FFC125"/>
<path d="M20.5201 18.1986L15.6106 13.2891C16.727 11.6316 17.2779 9.56076 16.983 7.35412C16.4801 3.60078 13.4039 0.546344 9.6469 0.0706863C4.06099 -0.636136 -0.636124 4.06097 0.0707398 9.64689C0.546521 13.4056 3.60137 16.4842 7.35512 16.9846C9.56176 17.2794 11.633 16.7288 13.2901 15.6122L18.1996 20.5218C18.8403 21.1624 19.8792 21.1624 20.5199 20.5218C21.16 19.8803 21.16 18.8385 20.5201 18.1986ZM3.24437 8.53127C3.24437 5.63638 5.59948 3.28127 8.49437 3.28127C11.3892 3.28127 13.7444 5.63638 13.7444 8.53127C13.7444 11.4261 11.3892 13.7813 8.49437 13.7813C5.59948 13.7813 3.24437 11.427 3.24437 8.53127Z" fill="#FFC125"/>
</g>
<defs>
<clipPath id="clip0_13_16">
<rect width="21" height="21" fill="white"/>
</clipPath>
</defs>
</svg>
